<svg xmlns="http://www.w3.org/2000/svg" width="81.603" height="82.314" viewBox="0 0 81.603 82.314"><defs><style>.a{fill:#e6006f;}.b{fill:#ff0a60;}.c{fill:#fc0da1;}.d{fill:#f20cb9;}</style></defs><path class="a" d="M344.791,108.4v18.525L333.213,138.5l-9.163-9.163-.1-.1Z" transform="translate(-303.696 -108.4)"/><path class="b" d="M459.793,129.693l-9.463,9.063-11.83-11.83V108.4Z" transform="translate(-398.001 -108.4)"/><path class="a" d="M533.373,245.82H514.848L503.52,234.493l9.463-9.063Z" transform="translate(-451.77 -204.493)"/><path class="b" d="M532.244,337.5,511.4,358.341l-9.263-9.263L513.719,337.5Z" transform="translate(-450.641 -296.518)"/><path class="a" d="M459.341,410.4,438.5,431.244V412.719l11.579-11.579Z" transform="translate(-397.992 -348.93)"/><path class="b" d="M342.763,411.59v18.525L321.47,408.823l9.463-9.062Z" transform="translate(-301.659 -347.801)"/><path class="a" d="M240.253,348.828l-9.463,9.063L210.4,337.5h18.525Z" transform="translate(-210.218 -296.513)"/><path class="b" d="M239.5,232.213l-11.579,11.579H209.4l20.84-20.84,0,0,.1.1Z" transform="translate(-209.4 -202.459)"/><g transform="translate(40.656 18.202)"><path class="c" d="M450.33,222.05,438.5,233.378V210.22Z" transform="translate(-438.5 -210.22)"/></g><g transform="translate(40.463 29.912)"><path class="d" d="M461.658,286.568H438.5l11.83-11.328Z" transform="translate(-438.5 -275.24)"/></g><g transform="translate(40.463 41.072)"><path class="c" d="M461.658,337.5l-11.579,11.579L438.5,337.5Z" transform="translate(-438.5 -337.5)"/></g><g transform="translate(40.659 40.955)"><path class="d" d="M450.079,349.079,438.5,360.658V337.5Z" transform="translate(-438.5 -337.5)"/></g><g transform="translate(29.117 40.955)"><path class="c" d="M385.31,337.5v23.158l-11.83-11.83Z" transform="translate(-373.48 -337.5)"/></g><g transform="translate(17.983 41.074)"><path class="d" d="M334.378,337.5l-11.83,11.328L311.22,337.5Z" transform="translate(-311.22 -337.5)"/></g><g transform="translate(17.983 29.663)"><path class="c" d="M334.378,285.439H311.22L322.8,273.86Z" transform="translate(-311.22 -273.86)"/></g><g transform="translate(29.365 18.202)"><path class="d" d="M386.439,210.22v23.158L374.86,221.8Z" transform="translate(-374.86 -210.22)"/></g></svg>