<svg xmlns="http://www.w3.org/2000/svg" width="548.586" height="475" viewBox="0 0 548.586 475"><defs><style>.a{fill:#2f2e41;}.b{fill:#ffb8b8;}.c{fill:#fc0da1;}.d{fill:#3f3d56;}.e{fill:#e6e6e6;}.f{fill:#fc0ca0;}</style></defs><path class="a" d="M387.758,223.562h0c-15.239,0-26.333,11.388-30.073,27.648L353.049,275.6h3.3l7.147-19.969-1.5,19.969h3.7l2.749-10.287-.579,10.287h44.562v-24.89c0-14.995-11.044-27.151-24.668-27.151Z" transform="translate(-254.076 -146.82)"/><path class="a" d="M364.794,407.993s-22.541,31.338-21.442,43.983,15.394,218.816,15.394,218.816l33.537,1.649L382.387,524l8.247-40.135,20.342,186.928,41.234,1.1L415.375,429.435l-7.147-21.442Z" transform="translate(-251.253 -200.315)"/><path class="b" d="M377.9,273.245s7.147,13.195-2.2,21.992-13.745,32.437-13.745,32.437l52.78-3.849-4.4-29.689s-11.546-7.147-8.8-19.792Z" transform="translate(-256.66 -161.23)"/><path class="c" d="M371.123,322.807s3.3,9.9,17.593,8.8a49.053,49.053,0,0,0,24.191-8.8v64.325l-43.983-1.649V346.448Z" transform="translate(-258.681 -175.607)"/><path class="d" d="M366.909,379.6l3.3-11s-1.1-25.84-5.5-36.286c0,0,8.4-27.535,9.7-35.484l-4.2,3.047-25.29,12.1,8.8,45.632,6.048,9.9-6.266,26Z" transform="translate(-251.718 -168.072)"/><path class="d" d="M406.1,375.274l12.645-68.723-3.47-17.043,10.068,9.9,19.792,6.048-9.346,51.68-5.5,11,2.719,24.671Z" transform="translate(-269.463 -165.948)"/><path class="b" d="M471.909,475.367s5.5,23.641-5.5,26.39-7.147-26.39-7.147-26.39Z" transform="translate(-284.696 -219.858)"/><path class="b" d="M337.262,440.8s21.171,11.871,15.791,21.847-24.313-12.505-24.313-12.505Z" transform="translate(-247.025 -209.833)"/><path class="d" d="M449.014,313.065l8.247-1.1s4.948,6.6,5.5,11.546,9.346,88.516,9.346,88.516c.633,1.824.008,3.615-.55,18.693l-1.649,6.6s-3.3-12.645-15.944-6.048l-1.649-7.7s-3.3-29.139-3.3-42.883-1.1-28.589-1.1-28.589Z" transform="translate(-281.593 -172.462)"/><ellipse class="a" cx="7.818" cy="2.932" rx="7.818" ry="2.932" transform="translate(119.774 468.373)"/><ellipse class="a" cx="7.818" cy="2.932" rx="7.818" ry="2.932" transform="translate(172.544 468.373)"/><path class="d" d="M345.323,317.386l-6.048.55-13.745,53.329s-1.67,69.246,12.1,56.078c0,0-4.948-14.294,7.7-19.243V378.963l4.4-25.29Z" transform="translate(-246.076 -174.034)"/><ellipse class="b" cx="0.825" cy="2.749" rx="0.825" ry="2.749" transform="translate(151.202 104.042)"/><ellipse class="b" cx="0.825" cy="2.749" rx="0.825" ry="2.749" transform="translate(113.817 104.042)"/><circle class="b" cx="18.143" cy="18.143" r="18.143" transform="translate(115.191 87.274)"/><path class="a" d="M172.313,129.993l-.464,4.4h12.559l1.65-3.3-.348,3.3H200.9L190.456,117.9l-23.091.549-5.5,15.944h8.247Z" transform="translate(-46.951 -34.197)"/><path class="e" d="M719.318,421.291c-81.033,0-146.958-65.925-146.958-146.958s65.925-146.958,146.958-146.958S866.276,193.3,866.276,274.333,800.351,421.291,719.318,421.291Zm0-292.5c-80.25,0-145.538,65.288-145.538,145.538s65.288,145.538,145.538,145.538,145.538-65.288,145.538-145.538S799.568,128.8,719.318,128.8Z" transform="translate(-317.69 -118.92)"/><path class="e" d="M736.142,396.938A105.781,105.781,0,1,1,841.923,291.157,105.9,105.9,0,0,1,736.142,396.938Zm0-210.143A104.361,104.361,0,1,0,840.5,291.157,104.48,104.48,0,0,0,736.142,186.8Z" transform="translate(-334.513 -135.743)"/><path class="e" d="M753.156,372.309a64.137,64.137,0,1,1,64.137-64.137A64.137,64.137,0,0,1,753.156,372.309Zm0-126.854a62.717,62.717,0,1,0,62.717,62.717,62.717,62.717,0,0,0-62.717-62.717Z" transform="translate(-351.528 -152.758)"/><circle class="f" cx="32.567" cy="32.567" r="32.567" transform="translate(369.061 122.846)"/><circle class="c" cx="10.326" cy="10.326" r="10.326" transform="translate(414.601)"/><circle class="f" cx="10.326" cy="10.326" r="10.326" transform="translate(285.126 245.447)"/><circle class="e" cx="10.326" cy="10.326" r="10.326" transform="translate(286.546 156.704)"/><circle class="e" cx="10.326" cy="10.326" r="10.326" transform="translate(479.65 87.13)"/><circle class="e" cx="10.326" cy="10.326" r="10.326" transform="translate(520.116 215.629)"/><circle class="f" cx="10.326" cy="10.326" r="10.326" transform="translate(490.062 169.986)"/><circle class="f" cx="10.326" cy="10.326" r="10.326" transform="translate(263.679 71.489)"/><circle class="f" cx="10.326" cy="10.326" r="10.326" transform="translate(429.693 286.752)"/><path class="e" d="M220.279,748.787c10.237,13.71,31.487,15.153,31.487,15.153s4.653-20.785-5.584-34.494-31.487-15.153-31.487-15.153S210.042,735.078,220.279,748.787Z" transform="translate(-213.639 -289.161)"/><path class="e" d="M287.675,760.841c-6.755,9.047-20.778,10-20.778,10s-3.07-13.715,3.685-22.762,20.778-10,20.778-10S294.43,751.794,287.675,760.841Z" transform="translate(-228.885 -296.06)"/><rect class="d" width="471.401" height="1.591" transform="translate(5.804 473.409)"/></svg>