<svg xmlns="http://www.w3.org/2000/svg" width="624.396" height="399.543" viewBox="0 0 624.396 399.543"><defs><style>.a{fill:#e6e6e6;}.b{fill:#f2f2f2;isolation:isolate;}.c{fill:#ccc;}.d{fill:#a0616a;}.e{fill:#2f2e41;}.f{fill:#fc0da1;}.g{fill:#3f3d56;}.h{fill:#fff;}.i{fill:#ffb8b8;}</style></defs><path class="a" d="M340.939,334.666a102.882,102.882,0,0,1,8.515-32.47q1.922-4.293,4.23-8.4a.627.627,0,0,0-1.082-.633A104.3,104.3,0,0,0,341,325.185q-.871,4.707-1.31,9.48C339.612,335.468,340.865,335.463,340.939,334.666Z" transform="translate(-246.935 -225.561)"/><circle class="a" cx="7.936" cy="7.936" r="7.936" transform="translate(101.849 54.374)"/><path class="a" d="M341.984,337.649a66.745,66.745,0,0,1,5.524-21.065q1.247-2.785,2.744-5.448a.407.407,0,0,0-.7-.41,67.669,67.669,0,0,0-7.53,20.772q-.565,3.054-.85,6.15C341.123,338.17,341.937,338.167,341.984,337.649Z" transform="translate(-247.168 -228.334)"/><circle class="a" cx="5.149" cy="5.149" r="5.149" transform="translate(99.905 73.809)"/><path class="a" d="M338.946,337.219a66.746,66.746,0,0,1-8.6-20.007q-.73-2.963-1.187-5.983a.407.407,0,0,0-.806.108,67.668,67.668,0,0,0,6.839,21.01q1.432,2.755,3.113,5.372C338.587,338.159,339.226,337.656,338.946,337.219Z" transform="translate(-245.155 -228.389)"/><circle class="a" cx="5.149" cy="5.149" r="5.149" transform="translate(78.042 73.448)"/><path class="b" d="M322.169,344.935V334.819a3.8,3.8,0,0,1,3.794-3.794h23.6a3.8,3.8,0,0,1,3.794,3.794v10.116a3.8,3.8,0,0,1-3.794,3.794h-23.6a3.8,3.8,0,0,1-3.794-3.794Z" transform="translate(-244.185 -231.551)"/><path class="b" d="M351.079,261.92H340.963a3.8,3.8,0,0,1-3.794-3.794V216.819a3.8,3.8,0,0,1,3.794-3.794h10.116a3.8,3.8,0,0,1,3.794,3.794v41.307A3.8,3.8,0,0,1,351.079,261.92Z" transform="translate(-246.54 -213.026)"/><rect class="c" width="16.86" height="3.372" transform="translate(91.051 8.009)"/><rect class="c" width="16.86" height="3.372" transform="translate(91.051 34.142)"/><path class="b" d="M381.079,261.92H370.963a3.8,3.8,0,0,1-3.794-3.794V216.819a3.8,3.8,0,0,1,3.794-3.794h10.116a3.8,3.8,0,0,1,3.794,3.794v41.307A3.8,3.8,0,0,1,381.079,261.92Z" transform="translate(-251.25 -213.026)"/><rect class="c" width="16.86" height="3.372" transform="translate(116.341 8.009)"/><rect class="c" width="16.86" height="3.372" transform="translate(116.341 34.142)"/><path class="b" d="M411.079,261.92H400.963a3.8,3.8,0,0,1-3.794-3.794V216.819a3.8,3.8,0,0,1,3.794-3.794h10.116a3.8,3.8,0,0,1,3.794,3.794v41.307A3.8,3.8,0,0,1,411.079,261.92Z" transform="translate(-255.959 -213.026)"/><rect class="c" width="16.86" height="3.372" transform="translate(141.631 8.009)"/><rect class="c" width="16.86" height="3.372" transform="translate(141.631 34.142)"/><path class="b" d="M427.079,342.92H416.963a3.8,3.8,0,0,1-3.794-3.794V297.819a3.8,3.8,0,0,1,3.794-3.794h10.116a3.8,3.8,0,0,1,3.794,3.794v41.307A3.8,3.8,0,0,1,427.079,342.92Z" transform="translate(-258.471 -225.742)"/><rect class="c" width="16.86" height="3.372" transform="translate(155.12 76.292)"/><rect class="c" width="16.86" height="3.372" transform="translate(155.12 102.426)"/><path class="b" d="M457.079,342.92H446.963a3.8,3.8,0,0,1-3.794-3.794V297.819a3.8,3.8,0,0,1,3.794-3.794h10.116a3.8,3.8,0,0,1,3.794,3.794v41.307A3.8,3.8,0,0,1,457.079,342.92Z" transform="translate(-263.181 -225.742)"/><rect class="c" width="16.86" height="3.372" transform="translate(180.41 76.292)"/><rect class="c" width="16.86" height="3.372" transform="translate(180.41 102.426)"/><path class="b" d="M487.079,342.92H476.963a3.8,3.8,0,0,1-3.794-3.794V297.819a3.8,3.8,0,0,1,3.794-3.794h10.116a3.8,3.8,0,0,1,3.794,3.794v41.307A3.8,3.8,0,0,1,487.079,342.92Z" transform="translate(-267.891 -225.742)"/><rect class="c" width="16.86" height="3.372" transform="translate(205.7 76.292)"/><rect class="c" width="16.86" height="3.372" transform="translate(205.7 102.426)"/><path class="b" d="M348.079,423.92H337.963a3.8,3.8,0,0,1-3.794-3.794V378.819a3.8,3.8,0,0,1,3.794-3.794h10.116a3.8,3.8,0,0,1,3.794,3.794v41.307a3.8,3.8,0,0,1-3.794,3.794Z" transform="translate(-246.069 -238.458)"/><rect class="c" width="16.86" height="3.372" transform="translate(88.522 144.576)"/><rect class="c" width="16.86" height="3.372" transform="translate(88.522 170.709)"/><path class="b" d="M378.079,423.92H367.963a3.8,3.8,0,0,1-3.794-3.794V378.819a3.8,3.8,0,0,1,3.794-3.794h10.116a3.8,3.8,0,0,1,3.794,3.794v41.307a3.8,3.8,0,0,1-3.794,3.794Z" transform="translate(-250.779 -238.458)"/><rect class="c" width="16.86" height="3.372" transform="translate(113.812 144.576)"/><rect class="c" width="16.86" height="3.372" transform="translate(113.812 170.709)"/><path class="b" d="M408.079,423.92H397.963a3.8,3.8,0,0,1-3.794-3.794V378.819a3.8,3.8,0,0,1,3.794-3.794h10.116a3.8,3.8,0,0,1,3.793,3.794v41.307a3.8,3.8,0,0,1-3.794,3.794Z" transform="translate(-255.488 -238.458)"/><rect class="c" width="16.86" height="3.372" transform="translate(139.102 144.576)"/><rect class="c" width="16.86" height="3.372" transform="translate(139.102 170.709)"/><path class="b" d="M441.079,261.92H430.963a3.8,3.8,0,0,1-3.794-3.794V216.819a3.8,3.8,0,0,1,3.794-3.794h10.116a3.8,3.8,0,0,1,3.794,3.794v41.307A3.8,3.8,0,0,1,441.079,261.92Z" transform="translate(-260.669 -213.026)"/><rect class="c" width="16.86" height="3.372" transform="translate(166.922 8.009)"/><rect class="c" width="16.86" height="3.372" transform="translate(166.922 34.142)"/><path class="b" d="M471.079,261.92H460.963a3.8,3.8,0,0,1-3.794-3.794V216.819a3.8,3.8,0,0,1,3.794-3.794h10.116a3.8,3.8,0,0,1,3.794,3.794v41.307A3.8,3.8,0,0,1,471.079,261.92Z" transform="translate(-265.379 -213.026)"/><rect class="c" width="16.86" height="3.372" transform="translate(192.212 8.009)"/><rect class="c" width="16.86" height="3.372" transform="translate(192.212 34.142)"/><path class="b" d="M501.079,261.92H490.963a3.8,3.8,0,0,1-3.794-3.794V216.819a3.8,3.8,0,0,1,3.794-3.794h10.116a3.8,3.8,0,0,1,3.794,3.794v41.307a3.8,3.8,0,0,1-3.794,3.794Z" transform="translate(-270.089 -213.026)"/><rect class="c" width="16.86" height="3.372" transform="translate(217.502 8.009)"/><rect class="c" width="16.86" height="3.372" transform="translate(217.502 34.142)"/><path class="b" d="M531.079,261.92H520.963a3.8,3.8,0,0,1-3.794-3.794V216.819a3.8,3.8,0,0,1,3.794-3.794h10.116a3.8,3.8,0,0,1,3.794,3.794v41.307A3.8,3.8,0,0,1,531.079,261.92Z" transform="translate(-274.798 -213.026)"/><rect class="c" width="16.86" height="3.372" transform="translate(242.793 8.009)"/><rect class="c" width="16.86" height="3.372" transform="translate(242.793 34.142)"/><path class="c" d="M533.711,272.212H293.453a.843.843,0,1,1,0-1.686H533.711a.843.843,0,1,1,0,1.686Z" transform="translate(-239.545 -222.053)"/><path class="c" d="M533.711,353.212H293.453a.843.843,0,1,1,0-1.686H533.711a.843.843,0,1,1,0,1.686Z" transform="translate(-239.545 -234.769)"/><path class="c" d="M533.711,434.212H293.453a.843.843,0,0,1,0-1.686H533.711a.843.843,0,0,1,0,1.686Z" transform="translate(-239.545 -247.485)"/><path class="c" d="M541.324,589.31c0-6.518-24.533-11.8-54.8-11.8s-54.8,5.284-54.8,11.8c0,4.177,10.086,7.845,25.29,9.943v64.664a5.48,5.48,0,0,0,10.959,0v-63.5c5.793.449,12.036.695,18.546.695s12.753-.246,18.546-.695v63.5a5.48,5.48,0,0,0,10.959,0V599.253C531.237,597.155,541.324,593.488,541.324,589.31Z" transform="translate(-261.385 -270.246)"/><path class="d" d="M319.563,453.482H329.9l4.916-39.864H319.561Z" transform="translate(-50.168 -64.934)"/><path class="e" d="M0,0H32.482V12.55H12.55A12.55,12.55,0,0,1,0,0Z" transform="translate(299.66 398.146) rotate(179.997)"/><path class="d" d="M336.478,446.13l9.861-3.095L339.1,403.528l-14.554,4.567Z" transform="translate(-50.95 -63.35)"/><path class="e" d="M0,0H32.482V12.55H12.55A12.55,12.55,0,0,1,0,0H0Z" transform="translate(317.28 382.876) rotate(162.577)"/><path class="e" d="M546.3,630.258l-18.906-49.629c-4.242,1-39.812,8.867-51.726-3.817-4.083-4.348-4.879-10.646-2.367-18.722l6.953-8.737.216.012c2.629.138,64.436,3.6,68.673,22.246,3.572,15.718,10.1,45.021,12.011,53.628a3.807,3.807,0,0,1-2.372,4.37l-7.6,2.851a3.762,3.762,0,0,1-1.325.241,3.8,3.8,0,0,1-3.552-2.442Z" transform="translate(-267.686 -265.826)"/><path class="e" d="M533.3,637.258l-18.906-49.629c-4.242,1-39.812,8.866-51.726-3.817-4.083-4.348-4.879-10.646-2.367-18.722l6.953-8.737.216.012c2.629.138,64.436,3.6,68.673,22.246,3.572,15.718,10.1,45.021,12.011,53.628a3.807,3.807,0,0,1-2.372,4.37l-7.6,2.851a3.765,3.765,0,0,1-1.325.241,3.8,3.8,0,0,1-3.552-2.442Z" transform="translate(-265.646 -266.925)"/><path class="d" d="M565.947,510.55a8.88,8.88,0,0,0-.746,1.182l-41.577,4.38-5.985-8.206-13.565,7.414,11.755,19.913,50.991-13a8.848,8.848,0,1,0-.874-11.682Z" transform="translate(-272.742 -259.184)"/><path class="f" d="M459.345,554.638a3.8,3.8,0,0,1-1.533-3.666c2.346-15.463-.353-37.614-3.03-53.474a20.9,20.9,0,0,1,23.233-24.246,67.332,67.332,0,0,1,8.357,1.647h0a20.735,20.735,0,0,1,15.665,20.627c-.4,15.3,2.707,34.4,4.062,41.9a3.809,3.809,0,0,1-.7,2.96,3.7,3.7,0,0,1-2.609,1.475c-15.012,1.532-31.2,8.853-39.516,13.081a3.8,3.8,0,0,1-1.728.422,3.733,3.733,0,0,1-2.2-.724Z" transform="translate(-264.957 -253.853)"/><path class="f" d="M506.225,516.013a3.769,3.769,0,0,1-2.085-2.021l-8.372-19.341a9.694,9.694,0,1,1,17.794-7.7l8.372,19.341a3.8,3.8,0,0,1-1.974,4.988l-10.831,4.688a3.767,3.767,0,0,1-2.9.046Z" transform="translate(-271.313 -255.111)"/><path class="d" d="M518.947,508.55a8.88,8.88,0,0,0-.746,1.182l-41.577,4.38-5.985-8.206-13.565,7.414,11.755,19.913,50.991-13a8.848,8.848,0,1,0-.874-11.682Z" transform="translate(-265.364 -258.87)"/><path class="f" d="M459.225,517.013a3.769,3.769,0,0,1-2.085-2.021l-8.372-19.341a9.694,9.694,0,0,1,17.794-7.7l8.372,19.341a3.8,3.8,0,0,1-1.974,4.988l-10.831,4.688A3.767,3.767,0,0,1,459.225,517.013Z" transform="translate(-263.934 -255.268)"/><circle class="d" cx="20.705" cy="20.705" r="20.705" transform="translate(190.811 171.409)"/><path class="e" d="M461.112,449.76a1.8,1.8,0,0,1,1.565-2.376,4.156,4.156,0,0,1,2.93,1.446,11.66,11.66,0,0,0,2.589,2.223,2.227,2.227,0,0,0,2.931-.53c.536-.9.169-2.114-.156-3.164a31.112,31.112,0,0,1-1.374-8.236c-.094-3.119.347-6.375,2.074-8.808,2.229-3.14,6.214-4.332,9.986-4.246s7.482,1.251,11.218,1.987c1.29.254,2.806.384,3.668-.616.917-1.063.58-2.783.19-4.218-1.012-3.724-2.086-7.574-4.439-10.582a15.931,15.931,0,0,0-10.167-5.724,24.4,24.4,0,0,0-11.349,1.288,30.43,30.43,0,0,0-14.907,10.385,24.646,24.646,0,0,0-4.7,18.209,22.481,22.481,0,0,0,8.334,14.209Z" transform="translate(-264.4 -243.436)"/><path class="g" d="M368.994,509.119a102.882,102.882,0,0,1,8.515-32.47q1.922-4.293,4.23-8.4a.627.627,0,0,0-1.082-.632,104.3,104.3,0,0,0-11.606,32.019q-.871,4.707-1.31,9.48C367.667,509.922,368.921,509.917,368.994,509.119Z" transform="translate(-251.339 -252.949)"/><circle class="f" cx="7.936" cy="7.936" r="7.936" transform="translate(125.499 201.44)"/><path class="g" d="M370.04,512.1a66.745,66.745,0,0,1,5.524-21.065q1.247-2.785,2.744-5.448a.407.407,0,0,0-.7-.41,67.667,67.667,0,0,0-7.53,20.772q-.565,3.054-.85,6.15C369.178,512.624,369.992,512.62,370.04,512.1Z" transform="translate(-251.572 -255.722)"/><circle class="f" cx="5.149" cy="5.149" r="5.149" transform="translate(123.556 220.875)"/><path class="g" d="M367,511.672a66.745,66.745,0,0,1-8.6-20.007q-.73-2.963-1.187-5.983a.407.407,0,0,0-.806.108,67.667,67.667,0,0,0,6.839,21.01q1.432,2.755,3.113,5.372c.282.44.922-.063.641-.5Z" transform="translate(-249.56 -255.777)"/><circle class="f" cx="5.149" cy="5.149" r="5.149" transform="translate(101.693 220.514)"/><path class="c" d="M350.224,519.389V509.273a3.8,3.8,0,0,1,3.794-3.794h23.6a3.8,3.8,0,0,1,3.793,3.794v10.116a3.8,3.8,0,0,1-3.794,3.794h-23.6a3.8,3.8,0,0,1-3.794-3.794Z" transform="translate(-248.589 -258.938)"/><rect class="c" width="72.499" height="5.901" rx="2.951" transform="translate(243.689 257.524)"/><path class="c" d="M639.24,515.775H564.212a5.486,5.486,0,0,1-5.48-5.48V468.988a5.486,5.486,0,0,1,5.48-5.48H639.24a5.486,5.486,0,0,1,5.48,5.48V510.3A5.486,5.486,0,0,1,639.24,515.775Z" transform="translate(-281.323 -252.349)"/><circle class="h" cx="5.058" cy="5.058" r="5.058" transform="translate(315.344 232.234)"/><path class="c" d="M860.324,589.31c0-6.518-24.533-11.8-54.8-11.8s-54.8,5.284-54.8,11.8c0,4.177,10.086,7.845,25.29,9.943v64.664a5.48,5.48,0,0,0,10.959,0v-63.5c5.793.449,12.036.695,18.546.695s12.753-.246,18.546-.695v63.5a5.48,5.48,0,0,0,10.959,0V599.253C850.237,597.155,860.324,593.488,860.324,589.31Z" transform="translate(-311.465 -270.246)"/><circle class="e" cx="23.604" cy="23.604" r="23.604" transform="translate(476.517 163.83)"/><path class="i" d="M520.737,454.482H510.4l-4.916-39.864h15.253Z" transform="translate(-79.356 -65.091)"/><path class="e" d="M500.223,458.4h19.932v12.55H487.673a12.55,12.55,0,0,1,12.55-12.55Z" transform="translate(-76.56 -71.965)"/><path class="i" d="M502.6,447.13l-9.861-3.095,7.243-39.508,14.554,4.567Z" transform="translate(-77.356 -63.507)"/><path class="e" d="M12.55,0H32.482V12.55H0A12.55,12.55,0,0,1,12.55,0Z" transform="translate(397.25 371.743) rotate(17.423)"/><path class="e" d="M735.969,633.7a3.763,3.763,0,0,1-1.325-.241l-7.6-2.851a3.807,3.807,0,0,1-2.372-4.37c1.914-8.607,8.438-37.911,12.011-53.628,4.237-18.643,66.044-22.108,68.673-22.246l.216-.012,6.953,8.737c2.512,8.075,1.716,14.374-2.367,18.722-11.914,12.685-47.484,4.814-51.726,3.817l-18.906,49.629a3.8,3.8,0,0,1-3.552,2.443Z" transform="translate(-307.36 -265.983)"/><path class="e" d="M748.969,640.7a3.762,3.762,0,0,1-1.325-.241l-7.6-2.851a3.807,3.807,0,0,1-2.372-4.37c1.914-8.607,8.438-37.911,12.011-53.628,4.237-18.643,66.044-22.108,68.673-22.246l.216-.012,6.953,8.737c2.512,8.075,1.716,14.374-2.367,18.722-11.914,12.684-47.484,4.814-51.726,3.817l-18.906,49.629a3.8,3.8,0,0,1-3.552,2.443Z" transform="translate(-309.401 -267.082)"/><path class="i" d="M722.035,511.55a8.86,8.86,0,0,1,.746,1.182l41.578,4.38,5.985-8.206,13.565,7.414-11.755,19.913-50.991-13a8.848,8.848,0,1,1,.874-11.682Z" transform="translate(-304.464 -259.341)"/><path class="f" d="M831.3,556.362a3.794,3.794,0,0,1-1.728-.422c-8.314-4.227-24.5-11.549-39.516-13.081a3.7,3.7,0,0,1-2.609-1.475,3.81,3.81,0,0,1-.7-2.96c1.355-7.5,4.462-26.594,4.062-41.9A20.735,20.735,0,0,1,806.471,475.9h0a67.318,67.318,0,0,1,8.357-1.647A20.9,20.9,0,0,1,838.06,498.5c-2.677,15.86-5.376,38.011-3.031,53.474a3.8,3.8,0,0,1-1.533,3.666A3.733,3.733,0,0,1,831.3,556.362Z" transform="translate(-317.11 -254.01)"/><path class="f" d="M789.763,517.281a3.789,3.789,0,0,1-1.506-.314l-10.831-4.688a3.8,3.8,0,0,1-1.974-4.988l8.372-19.341a9.694,9.694,0,0,1,17.794,7.7l-8.372,19.341a3.8,3.8,0,0,1-3.482,2.289Z" transform="translate(-315.297 -255.268)"/><circle class="i" cx="20.705" cy="20.705" r="20.705" transform="translate(478.553 172.252)"/><path class="e" d="M796.893,427.187A74.682,74.682,0,0,0,829.2,437.833l-3.406-4.081a25.026,25.026,0,0,0,7.731,1.535,8.467,8.467,0,0,0,6.9-3.23,7.875,7.875,0,0,0,.527-7.275,14.917,14.917,0,0,0-4.693-5.867,27.937,27.937,0,0,0-26-4.647,16.7,16.7,0,0,0-7.766,4.982c-1.963,2.421-5.742,4.579-4.737,7.529Z" transform="translate(-318.712 -244.402)"/><path class="e" d="M812.028,406.752a63.633,63.633,0,0,0-23.151-14.971c-5.6-2.073-11.688-3.354-17.539-2.177s-11.384,5.225-13.016,10.966c-1.335,4.694.044,9.748,2.115,14.167s4.837,8.516,6.512,13.1a29.9,29.9,0,0,1-30.086,40.1c5.749.771,11.048,3.472,16.667,4.91s12.251,1.341,16.427-2.685c4.418-4.259,4.507-11.184,4.293-17.318l-.953-27.351c-.162-4.65-.3-9.448,1.376-13.788s5.662-8.14,10.314-8.1c3.526.03,6.647,2.166,9.474,4.272s5.821,4.354,9.333,4.667,7.522-2.286,7.259-5.8" transform="translate(-309.288 -240.676)"/><path class="a" d="M482.2,281.087l47.675,1.125,6.907,50.965-44.028.988Z" transform="translate(-75.7 -44.128)"/><path class="i" d="M769.035,509.55a8.867,8.867,0,0,1,.746,1.181l41.577,4.381,5.985-8.206,13.565,7.414-11.755,19.913-50.991-13a8.848,8.848,0,1,1,.874-11.682Z" transform="translate(-311.843 -259.027)"/><path class="f" d="M836.763,518.281a3.79,3.79,0,0,1-1.506-.314l-10.831-4.688a3.8,3.8,0,0,1-1.974-4.988l8.372-19.341a9.694,9.694,0,0,1,17.794,7.7l-8.372,19.341a3.8,3.8,0,0,1-3.482,2.289Z" transform="translate(-322.676 -255.425)"/><path class="g" d="M659.73,524.508H324.212a5.48,5.48,0,0,0,0,10.959h9.695V654.753a5.48,5.48,0,1,0,10.959,0V546L406.3,657.339a5.48,5.48,0,0,0,9.491-5.48L351.571,535.467H644.977v.071L580.8,651.86a5.479,5.479,0,1,0,9.49,5.48l54.687-99.119v96.533a5.48,5.48,0,1,0,10.959,0v-116.4l1.594-2.889h2.2a5.48,5.48,0,0,0,0-10.959Z" transform="translate(-243.645 -261.926)"/><path class="g" d="M853.055,686.6H230.666a1,1,0,1,1,0-2.007H853.055a1,1,0,1,1,0,2.007Z" transform="translate(-229.662 -287.057)"/></svg>