<svg xmlns="http://www.w3.org/2000/svg" width="617.557" height="373.592" viewBox="0 0 617.557 373.592"><defs><style>.a{fill:#2f2e41;}.b{fill:#ffb8b8;}.c{fill:#d0cde1;}.d{fill:#6c63ff;}.e{fill:#3f3d56;}.f{fill:none;stroke:#d0cde1;stroke-miterlimit:10;stroke-width:2px;}.g{fill:#fc0da1;}.h{opacity:0.15;}</style></defs><circle class="a" cx="20.415" cy="20.415" r="20.415" transform="translate(335.16 99.631)"/><path class="a" d="M681.092,293.214a20.417,20.417,0,0,1,17.971,30.1,20.41,20.41,0,1,0-33.909-22.426A20.364,20.364,0,0,1,681.092,293.214Z" transform="translate(-319.83 -193.021)"/><circle class="a" cx="59.968" cy="59.968" r="59.968" transform="translate(257.459 0.066)"/><path class="a" d="M517.271,139.8a59.957,59.957,0,0,1,83.108-6.288c-.49-.466-.976-.936-1.485-1.389a59.968,59.968,0,1,0-79.686,89.637c.509.453,1.033.88,1.553,1.312a59.957,59.957,0,0,1-3.491-83.272Z" transform="translate(-246.909 -116.975)"/><circle class="b" cx="38.623" cy="38.623" r="38.623" transform="translate(278.296 42.247)"/><path class="b" d="M562.556,282.9s5.082,46.755-3.049,51.837,46.755,12.2,46.755,12.2-8.131-50.82,12.2-64.033Z" transform="translate(-273.08 -189.83)"/><path class="c" d="M550.72,349.481s15.135-7.068-6.662-4.55-40.6-7.138-40.6-7.138-6.6-6.607-7.621.508,3.049,20.328-19.312,22.361-42.689-4.066-50.82,11.18-4.066,81.312-4.066,81.312,15.246,54.886,27.443,63.017S568,513.122,568,513.122l30.492-54.886V394.2s-4.066-22.361-32.525-16.263c0,0-18.3-4.066-17.279-13.213S550.72,349.481,550.72,349.481Z" transform="translate(-212.457 -212.709)"/><path class="a" d="M475.393,669.786c.628-2.737,1.049-4.285,1.049-4.285l-.325-2.227-3.349-22.739-1.408-9.591c12.194-5.082,15.245-28.46,15.245-28.46l.46-.275,2.081-1.245v-.006l7.471-4.482.151-.09,3.018,2.008,6.131,4.089a72.091,72.091,0,0,0,56.769,13.007,62.5,62.5,0,0,0,13.361-3.859l14.785-4.93.46-.151.454.067,8.672,1.313.157.028.718.107-2.008,13.882-2.911,20.176c7.69,4.072,14.528,11.723,20.507,21.152q1.986,3.13,3.848,6.512c1.615,2.917,3.158,5.951,4.628,9.059.179.37.353.746.527,1.122.567,1.217,1.127,2.446,1.672,3.68H472.7c.2-1.24.4-2.423.6-3.562a.878.878,0,0,0,.022-.118c.073-.381.14-.752.2-1.122C474.209,675.142,474.871,672.052,475.393,669.786Z" transform="translate(-234.736 -327.481)"/><path class="a" d="M467.734,376.816a77.985,77.985,0,0,1,7.115,45.738c-4.066,25.41,12.2,88.427,12.2,88.427l12.2-3.049s-8.131-52.853-6.1-65.05,2.033-59.968-8.131-66.066S467.734,376.816,467.734,376.816Z" transform="translate(-233.144 -229.879)"/><path class="a" d="M678.467,412l4.272,112.532,8.131,5.082s11.689-123.493,5.59-123.493H684.052A5.593,5.593,0,0,0,678.467,412Z" transform="translate(-325.672 -243.936)"/><circle class="d" cx="5.082" cy="5.082" r="5.082" transform="translate(254.41 268.397)"/><circle class="d" cx="5.082" cy="5.082" r="5.082" transform="translate(356.051 273.479)"/><path class="a" d="M506.12,58.1V96.727h8.945l11.384-12.2-1.525,12.2h39.538l-2.439-12.2,4.879,12.2h6.3V58.1Z" transform="translate(-222.234 -25.513)"/><ellipse class="b" cx="3.049" cy="5.59" rx="3.049" ry="5.59" transform="translate(274.738 67.149)"/><ellipse class="b" cx="3.049" cy="5.59" rx="3.049" ry="5.59" transform="translate(353.001 67.149)"/><path class="b" d="M682.738,610.787s-46.246-8.639-49.3,6.607,51.328,8.639,51.328,8.639Z" transform="translate(-305.852 -332.734)"/><path class="c" d="M714.043,426.052s110.788,88.427,90.46,109.772-97.575,15.246-97.575,15.246l5.082-25.41,44.722-5.082-22.361-22.361-20.328,2.033Z" transform="translate(-338.173 -252.688)"/><path class="b" d="M427.869,677.663l14.23,11.18s10.164,31.509,25.41,22.361-14.23-41.673-14.23-41.673L436,663.434Z" transform="translate(-215.64 -356.922)"/><path class="c" d="M361.364,397.058l-14.191,4.271s-98.63,72.976-102.7,93.3,19.312,31.509,19.312,31.509l88.427,41.673,9.148-24.394-41.673-21.344s3.049-6.1-9.148-7.115-14.23-14.23-14.23-14.23,24.394-37.607,37.607-29.476,17.279,14.23,17.279,14.23Z" transform="translate(-134.905 -239.958)"/><path class="e" d="M606.228,726.07v3.4a7.484,7.484,0,0,1-.51,2.732,7.655,7.655,0,0,1-.544,1.122,7.537,7.537,0,0,1-6.478,3.679H348.223a7.537,7.537,0,0,1-6.478-3.68,7.676,7.676,0,0,1-.544-1.122,7.482,7.482,0,0,1-.51-2.732v-3.4a7.531,7.531,0,0,1,7.533-7.533h14.438V716.95a.314.314,0,0,1,.314-.314h7.533a.314.314,0,0,1,.314.314v1.587h4.706V716.95a.314.314,0,0,1,.314-.314h7.533a.314.314,0,0,1,.314.314v1.587H388.4V716.95a.314.314,0,0,1,.314-.314h7.533a.314.314,0,0,1,.314.314v1.587h4.706V716.95a.314.314,0,0,1,.314-.314h7.533a.314.314,0,0,1,.314.314v1.587h4.706V716.95a.314.314,0,0,1,.314-.314h7.533a.314.314,0,0,1,.314.314v1.587h4.712V716.95a.314.314,0,0,1,.314-.314h7.533a.314.314,0,0,1,.314.314v1.587h4.706V716.95a.314.314,0,0,1,.314-.314H499.2a.314.314,0,0,1,.314.314v1.587h4.712V716.95a.314.314,0,0,1,.314-.314h7.533a.317.317,0,0,1,.314.314v1.587h4.706V716.95a.314.314,0,0,1,.314-.314h7.533a.314.314,0,0,1,.314.314v1.587h4.706V716.95a.314.314,0,0,1,.314-.314H537.8a.314.314,0,0,1,.314.314v1.587h4.712V716.95a.314.314,0,0,1,.314-.314h7.533a.312.312,0,0,1,.309.314v1.587H555.7V716.95a.314.314,0,0,1,.314-.314h7.533a.314.314,0,0,1,.314.314v1.587h4.706V716.95a.314.314,0,0,1,.314-.314h7.533a.314.314,0,0,1,.314.314v1.587H598.7A7.531,7.531,0,0,1,606.228,726.07Z" transform="translate(-177.36 -380.282)"/><rect class="e" width="411.144" height="1.122" transform="translate(90.557 351.921)"/><path class="e" d="M593.59,476.315H500.231v-1.924H457.9v1.924H364.155a6.315,6.315,0,0,0-6.315,6.315V610.467a6.315,6.315,0,0,0,6.315,6.315H593.59a6.315,6.315,0,0,0,6.315-6.315V482.63A6.315,6.315,0,0,0,593.59,476.315Z" transform="translate(-184.89 -273.914)"/><circle class="f" cx="14.023" cy="14.023" r="14.023" transform="translate(280.143 233.009)"/><circle class="c" cx="14.023" cy="14.023" r="14.023" transform="translate(275.656 238.058)"/><rect class="e" width="106.011" height="1.269" transform="translate(14.595 372.19)"/><rect class="e" width="106.011" height="1.269" transform="translate(477.342 372.19)"/><path class="e" d="M179.4,688.031c-11.168,18.233-7.326,40.913-7.326,40.913s21.95-6.882,33.118-25.115,7.326-40.913,7.326-40.913S190.573,669.8,179.4,688.031Z" transform="translate(-103.043 -356.695)"/><path class="g" d="M132.025,733.368l-.635-.1c-.23-.036-23.086-3.823-36.774-20.2S81.257,673.522,81.262,673.29l.014-.643.635.1c.23.036,23.086,3.823,36.774,20.2h0c13.688,16.378,13.359,39.543,13.355,39.775Z" transform="translate(-63.446 -360.967)"/><path class="e" d="M140.444,729.1l-.613-.192c-.222-.07-22.28-7.155-33.429-25.356s-7.439-41.071-7.4-41.3l.107-.634.613.192c.222.07,22.28,7.155,33.429,25.357h0c11.149,18.2,7.439,41.07,7.4,41.3ZM100.013,663.1c-.508,3.838-2.532,23.746,7.345,39.871s28.532,23.366,32.181,24.658c.508-3.838,2.532-23.746-7.345-39.871h0c-9.877-16.125-28.532-23.367-32.181-24.659Z" transform="translate(-70.962 -356.125)"/><circle class="e" cx="12.34" cy="12.34" r="12.34" transform="translate(57.392 288.489)"/><path class="e" d="M318.21,201.522l-70.79-71.349H214v-1.122h33.888l.165.167,70.955,71.515Z" transform="translate(-93.966 -56.666)"/><path class="e" d="M695.587,197.522l70.79-71.349H799.8v-1.122H765.908l-.164.167-70.955,71.515Z" transform="translate(-305.078 -54.909)"/><rect class="c" width="81.892" height="16.197" transform="translate(0 38.332)"/><rect class="c" width="81.892" height="16.197" transform="translate(0 63.187)"/><rect class="c" width="81.892" height="16.197" transform="translate(0 88.041)"/><rect class="h" width="33.878" height="16.197" transform="translate(0 38.332)"/><rect class="h" width="10.968" height="16.197" transform="translate(0 63.187)"/><rect class="h" width="54.595" height="16.197" transform="translate(0 88.041)"/><rect class="c" width="82.018" height="7.309" transform="translate(535.54 41.971)"/><rect class="g" width="16.241" height="16.241" transform="translate(504.815 41.025)"/><rect class="g" width="16.241" height="16.241" transform="translate(504.815 65.387)"/><rect class="g" width="16.241" height="16.241" transform="translate(504.815 89.748)"/><path class="e" d="M972.863,199.478H955.5V182.115h17.363Zm-16.241-1.122h15.119v-15.12H956.622Z" transform="translate(-447.319 -145.577)"/><rect class="c" width="82.018" height="7.309" transform="translate(535.54 66.333)"/><path class="e" d="M972.863,242.911H955.5V225.548h17.363Zm-16.241-1.122h15.119V226.67H956.622Z" transform="translate(-447.319 -164.648)"/><rect class="c" width="82.018" height="7.309" transform="translate(535.54 90.694)"/><path class="e" d="M972.863,286.343H955.5V268.981h17.363Zm-16.241-1.122h15.119V270.1H956.622Z" transform="translate(-447.319 -183.719)"/><circle class="g" cx="8.974" cy="8.974" r="8.974" transform="translate(97.037 37.609)"/><circle class="g" cx="8.974" cy="8.974" r="8.974" transform="translate(97.037 64.533)"/><circle class="g" cx="8.974" cy="8.974" r="8.974" transform="translate(97.037 88.652)"/><path class="e" d="M223.035,198.1a9.535,9.535,0,1,1,9.535-9.535A9.535,9.535,0,0,1,223.035,198.1Zm0-17.949a8.414,8.414,0,1,0,8.414,8.414A8.414,8.414,0,0,0,223.035,180.147Z" transform="translate(-121.511 -144.221)"/><path class="e" d="M223.035,246.1a9.535,9.535,0,1,1,9.535-9.535A9.535,9.535,0,0,1,223.035,246.1Zm0-17.949a8.414,8.414,0,1,0,8.414,8.414A8.414,8.414,0,0,0,223.035,228.147Z" transform="translate(-121.511 -165.297)"/><path class="e" d="M223.035,289.1a9.535,9.535,0,1,1,9.535-9.535,9.535,9.535,0,0,1-9.535,9.535Zm0-17.949a8.414,8.414,0,1,0,8.414,8.414,8.414,8.414,0,0,0-8.414-8.414Z" transform="translate(-121.511 -184.178)"/><path class="e" d="M1004.69,692.827h-1.122v-8.414a1.684,1.684,0,0,1,1.683-1.683h2.8a.561.561,0,0,0,.561-.561v-5.609a.561.561,0,0,0-.561-.561h-2.8a1.684,1.684,0,0,1-1.683-1.683v-2.8a.561.561,0,0,0-.561-.561h-5.048a1.685,1.685,0,0,1-1.683-1.683v-.561a.561.561,0,0,0-.561-.561H975.523a.561.561,0,0,0-.561.561v.561a1.684,1.684,0,0,1-1.683,1.683h-5.048a.561.561,0,0,0-.561.561v2.8A1.685,1.685,0,0,1,965.987,676h-2.8a.561.561,0,0,0-.561.561v5.609a.561.561,0,0,0,.561.561h3.365a1.685,1.685,0,0,1,1.683,1.683v8.414h-1.122v-8.414a.561.561,0,0,0-.561-.561h-3.365a1.684,1.684,0,0,1-1.683-1.683v-5.609a1.685,1.685,0,0,1,1.683-1.683h2.8a.561.561,0,0,0,.561-.561v-2.8a1.685,1.685,0,0,1,1.683-1.683h5.048a.561.561,0,0,0,.561-.561v-.561a1.685,1.685,0,0,1,1.683-1.683h20.193a1.684,1.684,0,0,1,1.683,1.683v.561a.561.561,0,0,0,.561.561h5.048a1.684,1.684,0,0,1,1.683,1.683v2.8a.561.561,0,0,0,.561.561h2.8a1.685,1.685,0,0,1,1.683,1.683v5.609a1.685,1.685,0,0,1-1.683,1.683h-2.8a.561.561,0,0,0-.561.561Z" transform="translate(-449.954 -358.499)"/><path class="e" d="M1007.4,762.827H973.183a1.685,1.685,0,0,1-1.683-1.683V737.025h1.122v24.119a.561.561,0,0,0,.561.561H1007.4a.561.561,0,0,0,.561-.561V737.025h1.122v24.119A1.684,1.684,0,0,1,1007.4,762.827Z" transform="translate(-454.345 -389.235)"/><rect class="g" width="44.312" height="13.462" rx="2" transform="translate(517.155 338.255)"/><path class="e" d="M1007.751,726.609H965.683A1.685,1.685,0,0,1,964,724.926V713.708a1.685,1.685,0,0,1,1.683-1.683h42.068a1.685,1.685,0,0,1,1.683,1.683v11.218A1.684,1.684,0,0,1,1007.751,726.609Zm-42.068-13.462a.561.561,0,0,0-.561.561v11.218a.561.561,0,0,0,.561.561h42.068a.561.561,0,0,0,.561-.561V713.708a.561.561,0,0,0-.561-.561Z" transform="translate(-451.052 -378.258)"/><path class="c" d="M999.115,623.141h0a140.011,140.011,0,0,1-1.175-30.351l1.175-16.765h0C992.641,588.907,994.1,605.861,999.115,623.141Z" transform="translate(-464.572 -318.541)"/><path class="c" d="M1009.871,643.071h0a102.934,102.934,0,0,1-.565-18.066l.565-9.979h0C1006.757,622.693,1007.461,632.785,1009.871,643.071Z" transform="translate(-470.28 -335.666)"/></svg>